<?xml version="1.0" encoding="utf-8"?>
<!-- Generator: Adobe Illustrator 26.0.1, SVG Export Plug-In . SVG Version: 6.00 Build 0)  -->
<svg version="1.1" id="Layer_1" xmlns="http://www.w3.org/2000/svg" xmlns:xlink="http://www.w3.org/1999/xlink" x="0px" y="0px"
	 viewBox="0 0 64 64" style="enable-background:new 0 0 64 64;" xml:space="preserve">
<style type="text/css">
	.st0{fill:#212E3D;}
	.st1{fill:#0066B1;}
</style>
<path class="st0" d="M39.39,37.38c-2.65-0.88-5.5,0.55-6.39,3.19l-1.47,4.4c-2.28-1.61-4.57-3.42-6.51-5.37l-0.32-0.32l-0.32-0.32
	c-1.94-1.94-3.76-4.23-5.37-6.51l4.4-1.47c2.65-0.88,4.07-3.74,3.19-6.39L20.54,6.34c-0.88-2.65-3.74-4.08-6.39-3.19l-6.9,2.3
	C1.7,7.3-1.3,13.3,0.55,18.86l0.75,2.26c0.41,1.6,0.98,3.24,1.63,4.88l0.2,0.59c0.21,0.62,0.47,1.2,0.77,1.75
	c2.96,6.56,7.55,13.2,13.06,18.7c5.51,5.51,12.14,10.1,18.7,13.06c0.55,0.3,1.13,0.57,1.75,0.77l0.59,0.2
	c1.65,0.64,3.28,1.22,4.88,1.63l2.26,0.75c5.56,1.85,11.56-1.15,13.41-6.71l2.3-6.9c0.88-2.65-0.55-5.5-3.19-6.39L39.39,37.38z"/>
<g>
	<path class="st1" d="M46.63,29.78c-1.98,0-3.59-1.6-3.59-3.59c0-2.89-2.35-5.24-5.25-5.24c-1.98,0-3.59-1.6-3.59-3.59
		s1.6-3.59,3.59-3.59c6.85,0,12.42,5.57,12.42,12.41C50.21,28.18,48.61,29.78,46.63,29.78z"/>
</g>
<g>
	<path class="st1" d="M60.41,29.78c-1.98,0-3.59-1.6-3.59-3.59c0-10.49-8.54-19.03-19.03-19.03c-1.98,0-3.59-1.6-3.59-3.59
		S35.82,0,37.8,0C52.25,0,64,11.75,64,26.2C64,28.18,62.4,29.78,60.41,29.78z"/>
</g>
</svg>
