<svg width="188" height="140" viewBox="0 0 188 140" fill="none" xmlns="http://www.w3.org/2000/svg">
<path d="M156 0H36C30.4772 0 26 4.47715 26 10V130C26 135.523 30.4772 140 36 140H156C161.523 140 166 135.523 166 130V10C166 4.47715 161.523 0 156 0Z" fill="#1866B4" fill-opacity="0.15"/>
<path d="M48 54H183C184.326 54 185.598 54.5268 186.536 55.4645C187.473 56.4021 188 57.6739 188 59V84C188 85.3261 187.473 86.5979 186.536 87.5355C185.598 88.4732 184.326 89 183 89H48C46.6739 89 45.4021 88.4732 44.4645 87.5355C43.5268 86.5979 43 85.3261 43 84V59C43 57.6739 43.5268 56.4021 44.4645 55.4645C45.4021 54.5268 46.6739 54 48 54Z" fill="white"/>
<path d="M122 62H96C94.3431 62 93 63.3431 93 65C93 66.6569 94.3431 68 96 68H122C123.657 68 125 66.6569 125 65C125 63.3431 123.657 62 122 62Z" fill="#CFE2FF"/>
<path d="M140 75H96C94.3431 75 93 76.3431 93 78C93 79.6569 94.3431 81 96 81H140C141.657 81 143 79.6569 143 78C143 76.3431 141.657 75 140 75Z" fill="#DEE9FC"/>
<path d="M73.5 81C78.7467 81 83 76.7467 83 71.5C83 66.2533 78.7467 62 73.5 62C68.2533 62 64 66.2533 64 71.5C64 76.7467 68.2533 81 73.5 81Z" fill="#1866B4"/>
<path d="M5 97H140C141.326 97 142.598 97.5268 143.536 98.4645C144.473 99.4021 145 100.674 145 102V127C145 128.326 144.473 129.598 143.536 130.536C142.598 131.473 141.326 132 140 132H5C3.67392 132 2.40215 131.473 1.46447 130.536C0.526784 129.598 0 128.326 0 127V102C0 100.674 0.526784 99.4021 1.46447 98.4645C2.40215 97.5268 3.67392 97 5 97Z" fill="white"/>
<path d="M79 105H53C51.3431 105 50 106.343 50 108C50 109.657 51.3431 111 53 111H79C80.6569 111 82 109.657 82 108C82 106.343 80.6569 105 79 105Z" fill="#CFE2FF"/>
<path d="M97 118H53C51.3431 118 50 119.343 50 121C50 122.657 51.3431 124 53 124H97C98.6569 124 100 122.657 100 121C100 119.343 98.6569 118 97 118Z" fill="#DEE9FC"/>
<path d="M17.5 124C22.7467 124 27 119.747 27 114.5C27 109.253 22.7467 105 17.5 105C12.2533 105 8 109.253 8 114.5C8 119.747 12.2533 124 17.5 124Z" fill="#1866B4"/>
<path d="M140 11H5C2.23858 11 0 13.2386 0 16V41C0 43.7614 2.23858 46 5 46H140C142.761 46 145 43.7614 145 41V16C145 13.2386 142.761 11 140 11Z" fill="white"/>
<path d="M77 19H51C49.3431 19 48 20.3431 48 22C48 23.6569 49.3431 25 51 25H77C78.6569 25 80 23.6569 80 22C80 20.3431 78.6569 19 77 19Z" fill="#CFE2FF"/>
<path d="M95 32H51C49.3431 32 48 33.3431 48 35C48 36.6569 49.3431 38 51 38H95C96.6569 38 98 36.6569 98 35C98 33.3431 96.6569 32 95 32Z" fill="#DEE9FC"/>
<path d="M30.5 38C35.7467 38 40 33.7467 40 28.5C40 23.2533 35.7467 19 30.5 19C25.2533 19 21 23.2533 21 28.5C21 33.7467 25.2533 38 30.5 38Z" fill="#1866B4"/>
</svg>
