<?xml version="1.0" encoding="utf-8"?>
<!-- Generator: Adobe Illustrator 26.0.1, SVG Export Plug-In . SVG Version: 6.00 Build 0)  -->
<svg version="1.1" id="Layer_1" xmlns="http://www.w3.org/2000/svg" xmlns:xlink="http://www.w3.org/1999/xlink" x="0px" y="0px"
	 viewBox="0 0 64 64" style="enable-background:new 0 0 64 64;" xml:space="preserve">
<style type="text/css">
	.st0{fill:#212E3D;}
	.st1{fill:#0066B1;}
</style>
<path class="st0" d="M36.45,11.35C27.12,9.82,17.8,9.83,8.47,11.4C3.57,12.22,0,16.98,0,22.47v19.09c0,5.6,3.74,10.3,8.74,11.13
	c9.09,1.5,18.41,1.45,27.96-0.13c4.92-0.82,8.52-5.58,8.52-11.09v-19C45.22,16.86,41.46,12.17,36.45,11.35z"/>
<path class="st1" d="M61.26,15.32c-0.81-1.85-3.33-2.13-4.56-0.53l-7.35,9.49v15.43l7.35,9.49c1.24,1.6,3.76,1.32,4.56-0.53
	C62.58,45.66,64,40.45,64,32C64,23.55,62.58,18.34,61.26,15.32z"/>
</svg>
